<?xml version="1.0" encoding="UTF-8"?>
<svg version="1.1" xmlns="http://www.w3.org/2000/svg" width="96" height="96">
<path d="M0 0 C2.39282339 1.13668901 4.79810579 2.24263582 7.20703125 3.34472656 C8.74430495 4.05912046 10.28079296 4.77520801 11.81640625 5.49316406 C12.88675613 5.98716705 12.88675613 5.98716705 13.97872925 6.4911499 C18.5718168 8.69115195 22.48898619 10.79286658 24.44921875 15.75878906 C24.53703208 19.44694899 23.48537673 21.27123499 21.51171875 24.38378906 C19.09550094 25.91444147 16.98337031 27.05474966 14.39453125 28.18066406 C13.70036102 28.5003717 13.0061908 28.82007935 12.29098511 29.1494751 C10.08059234 30.16227569 7.85929786 31.14806486 5.63671875 32.13378906 C4.15025749 32.81045448 2.66457059 33.48882371 1.1796875 34.16894531 C-2.69736193 35.93658447 -6.58287634 37.67955221 -10.48828125 39.38378906 C-11.64481201 39.97981934 -11.64481201 39.97981934 -12.82470703 40.58789062 C-20.66742313 42.93136033 -27.33047866 41.22292735 -34.48828125 37.77050781 C-35.29064209 37.40029007 -36.09300293 37.03007233 -36.91967773 36.64863586 C-38.59761782 35.86986268 -40.27136284 35.0819908 -41.94091797 34.28540039 C-44.50054113 33.06544582 -47.07273314 31.87599758 -49.6484375 30.69042969 C-51.28336249 29.9271893 -52.91750708 29.16227448 -54.55078125 28.39550781 C-55.31841797 28.03913742 -56.08605469 27.68276703 -56.87695312 27.31559753 C-60.37382166 25.6364931 -62.29527024 24.67330558 -64.48828125 21.38378906 C-65.17103866 14.21483622 -65.17103866 14.21483622 -62.94042969 11.49975586 C-59.8072595 8.79613319 -56.53186772 7.21879351 -52.79296875 5.49316406 C-52.0454837 5.14368713 -51.29799866 4.79421021 -50.52786255 4.43414307 C-48.94818297 3.70004252 -47.36624407 2.97078659 -45.78222656 2.24609375 C-43.38267136 1.14270523 -40.99831469 0.01034577 -38.61328125 -1.12402344 C-23.09283525 -8.37672023 -15.29868979 -7.27636031 0 0 Z M-30.63671875 5.44628906 C-31.29411041 5.75703369 -31.95150208 6.06777832 -32.6288147 6.38793945 C-34.71229132 7.37581052 -36.78769684 8.37945849 -38.86328125 9.38378906 C-40.28074574 10.05932732 -41.69871005 10.73381789 -43.1171875 11.40722656 C-46.58012052 13.05401259 -50.03590894 14.71498393 -53.48828125 16.38378906 C-53.48828125 17.04378906 -53.48828125 17.70378906 -53.48828125 18.38378906 C-49.33267391 20.39252341 -45.17010698 22.38574757 -41.00048828 24.36523438 C-39.58443136 25.04010181 -38.17033158 25.71909248 -36.75830078 26.40234375 C-34.72284178 27.3863641 -32.68069738 28.35511408 -30.63671875 29.32128906 C-30.01147308 29.62752197 -29.38622742 29.93375488 -28.74203491 30.24926758 C-24.79240297 32.09382091 -21.82602924 32.9347927 -17.48828125 32.38378906 C-14.92920156 31.45128211 -12.57021064 30.48027169 -10.12109375 29.32128906 C-9.10171219 28.85517212 -9.10171219 28.85517212 -8.06173706 28.37963867 C-5.90721786 27.39154731 -3.76033087 26.38799209 -1.61328125 25.38378906 C-0.14761275 24.70827327 1.31852883 24.03378289 2.78515625 23.36035156 C6.36626133 21.71331511 9.94060828 20.05237823 13.51171875 18.38378906 C9.69789701 13.91186329 3.87707488 12.0210334 -1.34790039 9.60327148 C-3.28981321 8.70138298 -5.22197645 7.78062549 -7.15429688 6.85839844 C-8.39658668 6.27844551 -9.639409 5.69963163 -10.8828125 5.12207031 C-12.00534424 4.59653564 -13.12787598 4.07100098 -14.28442383 3.52954102 C-20.59842291 1.2715514 -24.8041552 2.58961527 -30.63671875 5.44628906 Z " fill="#5760F2" transform="translate(68.48828125,10.6162109375)"/>
<path d="M0 0 C1.4540625 0.0309375 1.4540625 0.0309375 2.9375 0.0625 C3.2675 1.3825 3.5975 2.7025 3.9375 4.0625 C4.97692749 4.21900024 4.97692749 4.21900024 6.03735352 4.37866211 C9.42226895 5.17680574 12.2122524 6.4822709 15.33984375 8.00390625 C16.57210646 8.59343178 17.80453344 9.18261402 19.03710938 9.77148438 C20.9592066 10.69753888 22.87939748 11.62714706 24.79663086 12.56323242 C26.66044439 13.47041099 28.53074671 14.36292114 30.40234375 15.25390625 C32.06704712 16.06130249 32.06704712 16.06130249 33.76538086 16.88500977 C38.5812194 18.67264844 41.52128066 18.59979575 46.32495117 16.77734375 C47.54895385 16.19633729 48.76728598 15.60327326 49.98046875 15 C50.63074539 14.68925537 51.28102203 14.37851074 51.95100403 14.05834961 C54.014452 13.07060512 56.0700101 12.06770787 58.125 11.0625 C60.19159293 10.05937892 62.25968014 9.05970267 64.33113098 8.06665039 C65.61632667 7.44977725 66.89860459 6.82677926 68.17753601 6.19702148 C70.97703189 4.84653627 72.78346538 4.0625 75.9375 4.0625 C76.2675 2.7425 76.5975 1.4225 76.9375 0.0625 C78.93704746 0.01995644 80.93791636 0.02169217 82.9375 0.0625 C83.9375 1.0625 83.9375 1.0625 84.25 4.375 C83.9375 8.0625 83.9375 8.0625 82.39892578 10.04980469 C79.2373016 12.63504866 75.93606157 14.24827609 72.2421875 15.953125 C71.49470245 16.30260193 70.74721741 16.65207886 69.9770813 17.012146 C68.39740172 17.74624654 66.81546282 18.47550247 65.23144531 19.20019531 C62.83189011 20.30358384 60.44753344 21.43594329 58.0625 22.5703125 C41.41404582 30.35012697 41.41404582 30.35012697 33.06402588 27.40075684 C28.42690959 25.62412836 23.93211129 23.57844167 19.44921875 21.44628906 C17.05639536 20.30960005 14.65111296 19.20365324 12.2421875 18.1015625 C10.7049138 17.3871686 9.16842579 16.67108106 7.6328125 15.953125 C6.91924591 15.62378967 6.20567932 15.29445435 5.4704895 14.95513916 C1.6792605 13.13921218 -1.43261731 11.45939703 -4.0625 8.0625 C-4.375 4.375 -4.375 4.375 -4.0625 1.0625 C-3.0625 0.0625 -3.0625 0.0625 0 0 Z " fill="#5760F2" transform="translate(8.0625,63.9375)"/>
<path d="M0 0 C1.4540625 0.0309375 1.4540625 0.0309375 2.9375 0.0625 C3.2675 1.3825 3.5975 2.7025 3.9375 4.0625 C4.97692749 4.21900024 4.97692749 4.21900024 6.03735352 4.37866211 C9.42226895 5.17680574 12.2122524 6.4822709 15.33984375 8.00390625 C16.57210646 8.59343178 17.80453344 9.18261402 19.03710938 9.77148438 C20.9592066 10.69753888 22.87939748 11.62714706 24.79663086 12.56323242 C26.66044439 13.47041099 28.53074671 14.36292114 30.40234375 15.25390625 C32.06704712 16.06130249 32.06704712 16.06130249 33.76538086 16.88500977 C38.5812194 18.67264844 41.52128066 18.59979575 46.32495117 16.77734375 C47.54895385 16.19633729 48.76728598 15.60327326 49.98046875 15 C50.63074539 14.68925537 51.28102203 14.37851074 51.95100403 14.05834961 C54.014452 13.07060512 56.0700101 12.06770787 58.125 11.0625 C60.19159293 10.05937892 62.25968014 9.05970267 64.33113098 8.06665039 C65.61632667 7.44977725 66.89860459 6.82677926 68.17753601 6.19702148 C70.97703189 4.84653627 72.78346538 4.0625 75.9375 4.0625 C76.2675 2.7425 76.5975 1.4225 76.9375 0.0625 C78.93704746 0.01995644 80.93791636 0.02169217 82.9375 0.0625 C83.9375 1.0625 83.9375 1.0625 84.25 4.375 C83.9375 8.0625 83.9375 8.0625 82.39892578 10.04980469 C79.2373016 12.63504866 75.93606157 14.24827609 72.2421875 15.953125 C71.49470245 16.30260193 70.74721741 16.65207886 69.9770813 17.012146 C68.39740172 17.74624654 66.81546282 18.47550247 65.23144531 19.20019531 C62.83189011 20.30358384 60.44753344 21.43594329 58.0625 22.5703125 C41.41404582 30.35012697 41.41404582 30.35012697 33.06402588 27.40075684 C28.42690959 25.62412836 23.93211129 23.57844167 19.44921875 21.44628906 C17.05639536 20.30960005 14.65111296 19.20365324 12.2421875 18.1015625 C10.7049138 17.3871686 9.16842579 16.67108106 7.6328125 15.953125 C6.91924591 15.62378967 6.20567932 15.29445435 5.4704895 14.95513916 C1.6792605 13.13921218 -1.43261731 11.45939703 -4.0625 8.0625 C-4.375 4.375 -4.375 4.375 -4.0625 1.0625 C-3.0625 0.0625 -3.0625 0.0625 0 0 Z " fill="#5760F2" transform="translate(8.0625,43.9375)"/>
</svg>
